# xmcd
#
# Track frame offsets:
#	150
#	33440
#	59920
#	92405
#	108165
#	162725
#	182505
#	201282
#	204992
#	215925
#	222365
#	240777
#	257825
#	262122
#	295565
#	318640
#
# Disc length: 4409 seconds
#
# Revision: 1
# Processed by: cddbd v1.5.1PL0 Copyright (c) Steve Scherf et al.
# Submitted via: MusicWizard 7.2.0
#
DISCID=f6113710
DTITLE=Chris Hinze - Tibet Impressions I
DYEAR=1900
DGENRE=New Age
TTITLE0=So Give Them Hope
TTITLE1=Golden Light
TTITLE2=Body Energy
TTITLE3=Yamantaka
TTITLE4=The Message
TTITLE5=Mount Kailash
TTITLE6=The River
TTITLE7=Workers Song
TTITLE8=Tribute To Tsurphu Part 1
TTITLE9=Interlude
TTITLE10=Tribute To Tsurphu Part 2
TTITLE11=Life At Barkhor
TTITLE12=Streetsinger
TTITLE13=Path Inner Peace
TTITLE14=Remix Of: So Give Them Hope
TTITLE15=Remix Of: Body Energy
EXTD=Hinze war in Tibet und dem Himalaya mit seinem DAT-Recorder unterwegs und hat mitgebrachtes M
EXTD=aterial in seine Songs eingewoben, hier u.a. die Stimme des Dalai Lamas. Sein neues Werk ist 
EXTD=rhythmischer, direkter und einzelne Tranceloops öffnen andere Klangräume. Kaum ein Musiker ha
EXTD=t die so fremden Klangwelten des tibetischen Buddhismus so gut verstanden und bereichernd ver
EXTD=arbeitet.
EXTT0=
EXTT1=
EXTT2=
EXTT3=
EXTT4=
EXTT5=
EXTT6=
EXTT7=
EXTT8=
EXTT9=
EXTT10=
EXTT11=
EXTT12=
EXTT13=
EXTT14=
EXTT15=
PLAYORDER=
